HIERARCHY
ROOT root
{
	OFFSET 0.000000 0.000000 0.000000
	CHANNELS 6 Xposition Yposition Zposition Zrotation Yrotation Xrotation
	JOINT lhip
	{
		OFFSET 0.058581 -0.082280 -0.017664
		CHANNELS 3 Zrotation Yrotation Xrotation
		JOINT lknee
		{
			OFFSET 0.043451 -0.386469 0.008037
			CHANNELS 3 Zrotation Yrotation Xrotation
			JOINT lankle
			{
				OFFSET -0.014790 -0.426874 -0.037428
				CHANNELS 3 Zrotation Yrotation Xrotation
				JOINT ltoe
				{
					OFFSET 0.041054 -0.060286 0.122042
					CHANNELS 3 Zrotation Yrotation Xrotation
					End Site
					{
						OFFSET 0.000000 0.000000 0.000000
					}
				}
			}
		}
	}
	JOINT rhip
	{
		OFFSET -0.060310 -0.090513 -0.013543
		CHANNELS 3 Zrotation Yrotation Xrotation
		JOINT rknee
		{
			OFFSET -0.043257 -0.383688 -0.004843
			CHANNELS 3 Zrotation Yrotation Xrotation
			JOINT rankle
			{
				OFFSET 0.019056 -0.420046 -0.034562
				CHANNELS 3 Zrotation Yrotation Xrotation
				JOINT rtoe
				{
					OFFSET -0.034840 -0.062106 0.130323
					CHANNELS 3 Zrotation Yrotation Xrotation
					End Site
					{
						OFFSET 0.000000 0.000000 0.000000
					}
				}
			}
		}
	}
	JOINT lowerback
	{
		OFFSET 0.004439 0.124404 -0.038385
		CHANNELS 3 Zrotation Yrotation Xrotation
		JOINT upperback
		{
			OFFSET 0.004488 0.137956 0.026820
			CHANNELS 3 Zrotation Yrotation Xrotation
			JOINT chest
			{
				OFFSET -0.002265 0.056032 0.002855
				CHANNELS 3 Zrotation Yrotation Xrotation
				JOINT lowerneck
				{
					OFFSET -0.013390 0.211636 -0.033468
					CHANNELS 3 Zrotation Yrotation Xrotation
					JOINT upperneck
					{
						OFFSET 0.010113 0.088937 0.050410
						CHANNELS 3 Zrotation Yrotation Xrotation
						End Site
						{
							OFFSET 0.000000 0.000000 0.000000
						}
					}
				}
				JOINT lclavicle
				{
					OFFSET 0.071702 0.114000 -0.018898
					CHANNELS 3 Zrotation Yrotation Xrotation
					JOINT lshoulder
					{
						OFFSET 0.122921 0.045205 -0.019046
						CHANNELS 3 Zrotation Yrotation Xrotation
						JOINT lelbow
						{
							OFFSET 0.255332 -0.015649 -0.022946
							CHANNELS 3 Zrotation Yrotation Xrotation
							JOINT lwrist
							{
								OFFSET 0.265709 0.012698 -0.007375
								CHANNELS 3 Zrotation Yrotation Xrotation
								End Site
								{
									OFFSET 0.000000 0.000000 0.000000
								}
							}
						}
					}
				}
				JOINT rclavicle
				{
					OFFSET -0.082954 0.112472 -0.023707
					CHANNELS 3 Zrotation Yrotation Xrotation
					JOINT rshoulder
					{
						OFFSET -0.113228 0.046853 -0.008472
						CHANNELS 3 Zrotation Yrotation Xrotation
						JOINT relbow
						{
							OFFSET -0.260127 -0.014369 -0.031269
							CHANNELS 3 Zrotation Yrotation Xrotation
							JOINT rwrist
							{
								OFFSET -0.269108 0.006794 -0.006027
								CHANNELS 3 Zrotation Yrotation Xrotation
								End Site
								{
									OFFSET 0.000000 0.000000 0.000000
								}
							}
						}
					}
				}
			}
		}
	}
}
MOTION
Frames: 14
Frame Time: 0.033333
0.323766 1.859217 0.999823 11.725062 -0.135653 85.834547 1.600767 -5.032081 -5.068601 -7.112370 -7.504075 56.060281 -3.880566 5.064285 -4.819667 0.000000 -0.000000 0.000000 1.239852 -1.202156 -11.933289 -0.176902 -8.435467 16.961090 1.111268 -9.521270 -4.867025 0.000000 -0.000000 0.000000 2.232946 2.990354 10.634354 -1.518356 0.766274 -2.153566 -2.706128 2.169674 2.496868 -0.918906 -2.651450 -7.289358 -7.214561 -8.362851 -1.586107 -21.268529 -0.354515 -2.583042 -51.438719 0.728890 7.662247 4.779076 -23.802185 18.438752 -8.045133 -8.113684 8.548313 14.342880 15.960445 -8.934513 20.529010 39.148328 -4.249149 -75.601675 64.503183 -53.722888 -16.038868 12.039867 -0.509244 
0.320662 1.832166 1.000994 9.972941 -0.518695 85.154035 1.118829 -5.271280 -7.974473 -6.911180 -4.704970 57.060271 -2.469573 6.043442 -8.803250 0.000000 -0.000000 0.000000 1.771780 -1.619470 -8.734476 0.114295 -6.209455 15.292061 1.405132 -9.477601 -5.747412 0.000000 -0.000000 0.000000 2.098489 5.371699 10.191199 -1.840572 2.669019 1.287049 -2.502005 1.787485 0.826811 0.004014 -4.192419 -8.049780 -7.895988 -8.826425 -0.521948 -20.548784 0.565081 -2.771818 -52.990926 0.532539 8.873865 5.674895 -23.657899 19.112342 -8.319313 -8.620220 6.161943 11.501628 16.398449 -10.325173 17.469495 41.869499 -6.525635 -47.371091 55.476445 -29.497747 -12.484457 9.386733 -1.886063 
0.318072 1.804756 1.002250 8.575489 -0.703296 84.408952 0.754680 -4.831017 -10.524597 -7.534945 -3.807589 56.448610 -0.816800 6.534687 -13.360262 0.000000 -0.000000 0.000000 2.253467 -3.297950 -5.501861 0.310447 -3.731280 13.845046 1.409927 -8.660778 -6.683969 0.000000 -0.000000 0.000000 2.782205 6.117986 11.078951 -3.005658 3.822919 0.912586 -2.823557 2.615067 1.148058 0.817094 -6.193705 -8.102162 -7.730526 -8.207997 -0.188991 -20.130426 1.712181 -3.760271 -52.632979 1.645123 9.765756 4.902239 -24.361294 21.091790 -6.461391 -9.201324 1.945085 8.910870 17.736761 -12.281972 15.821860 43.952247 -9.597820 -29.703608 42.571556 -18.003528 -4.820726 6.451647 -1.688018 
0.316346 1.771954 1.002877 7.442282 -1.198434 84.276048 0.057539 -5.929858 -14.075069 -7.970731 -2.482732 52.865857 -0.184301 7.126507 -17.931031 0.000000 -0.000000 0.000000 2.072649 -4.041540 -2.614280 0.522794 -2.070280 12.724621 2.088906 -8.169191 -8.084098 0.000000 -0.000000 0.000000 3.159147 7.082945 12.023117 -4.369394 5.085400 -0.935357 -3.180215 3.379290 1.823681 1.780423 -7.568014 -7.759413 -7.283798 -8.674497 0.547416 -19.382407 3.153292 -3.920362 -52.874899 2.170428 11.044024 5.439386 -24.987413 21.083877 -7.455622 -9.384089 -0.012224 6.069657 18.616309 -13.464676 13.114195 46.321076 -13.094574 -17.027477 24.558267 -13.458644 -0.889495 3.503982 -4.560186 
0.315669 1.752688 1.002629 7.143122 -1.464374 84.394199 -0.333035 -6.640637 -16.075395 -7.851555 -2.117712 49.435662 0.035497 7.811239 -19.661066 0.000000 -0.000000 0.000000 1.956795 -4.385909 -1.305277 0.576828 -1.350559 12.414730 2.437586 -8.196734 -9.014040 0.000000 -0.000000 0.000000 3.294507 7.643095 12.381604 -5.090341 5.695227 -1.955255 -3.431527 3.703212 2.269352 2.282351 -8.336124 -7.782535 -6.825754 -9.206692 0.969225 -19.074408 3.813117 -4.012538 -52.841231 2.170282 11.736583 5.734486 -25.092919 21.009003 -7.628477 -9.507770 -0.779345 4.711874 18.641401 -14.023790 12.561383 47.029619 -14.101464 -12.694008 15.767347 -12.937443 0.546103 2.279724 -5.464922 
0.315056 1.727174 1.001538 7.209849 -1.726707 84.724845 -0.878849 -7.478466 -18.391463 -6.970595 -2.215050 43.553868 0.423451 8.658765 -20.990439 0.000000 -0.000000 0.000000 1.875464 -4.898820 0.178870 0.584766 -0.716518 12.142977 2.794820 -8.418283 -10.274154 0.000000 -0.000000 0.000000 3.308987 8.196122 12.573166 -5.815331 6.034994 -2.962934 -3.739507 4.116227 2.806539 2.801176 -9.072271 -8.025959 -6.064500 -10.184740 1.335678 -18.907420 4.685516 -4.370670 -52.704085 2.093155 12.138156 6.018410 -25.171025 20.681525 -7.344474 -9.438483 -0.969599 4.104726 18.286015 -14.274608 13.280516 46.956560 -14.052493 -9.798860 9.426760 -12.956483 1.298480 1.256302 -5.171542 
0.314391 1.701630 0.999512 7.654406 -1.783517 85.168698 -1.257869 -8.167911 -20.117177 -5.409790 -2.581702 36.347832 0.802675 9.305933 -20.968152 0.000000 -0.000000 0.000000 1.976694 -5.425920 1.572693 0.546330 -0.578947 11.892886 2.997334 -8.482615 -11.632004 0.000000 -0.000000 0.000000 3.117431 8.540324 12.474259 -6.088035 5.751513 -3.520815 -3.900320 4.416048 3.239639 3.059483 -9.179344 -8.385293 -5.287075 -11.405501 1.548563 -19.041388 5.754180 -4.964889 -52.690282 2.210320 11.949314 6.350144 -25.445795 20.108784 -7.144101 -9.070349 -0.506249 4.994592 17.356417 -13.923406 16.021810 45.823309 -11.871211 -9.981364 10.402345 -12.266982 1.838036 0.855127 -4.662803 
0.313624 1.675566 0.996534 7.903796 -1.680703 85.655585 -1.369791 -7.999679 -21.082992 -3.807596 -2.853088 27.967096 0.843769 9.540485 -19.596630 0.000000 -0.000000 0.000000 2.182935 -5.943667 2.861029 0.517891 -0.617226 11.844078 3.105611 -8.174685 -12.964689 0.000000 -0.000000 0.000000 2.609401 9.223197 11.988249 -5.817825 5.257094 -3.442943 -3.736451 4.473230 3.572932 3.010242 -8.722964 -9.013119 -4.892737 -12.652726 1.891408 -19.287450 6.769807 -5.521743 -53.152433 2.305111 11.607620 6.826802 -25.659961 19.199473 -7.143434 -8.742030 -0.071182 7.188288 15.974730 -13.196284 19.307856 43.869047 -8.757767 -11.639312 15.739255 -10.752187 3.072263 1.257536 -3.842991 
0.313467 1.648704 0.992855 7.714690 -1.584964 86.277487 -1.457539 -7.174269 -21.400979 -2.643924 -3.451985 18.834424 0.694868 9.059856 -17.562380 0.000000 -0.000000 0.000000 2.326861 -6.305733 3.907181 0.458728 -0.599913 12.088949 3.176797 -7.686929 -14.276948 0.000000 -0.000000 0.000000 1.829279 9.916879 11.117400 -5.290474 4.937271 -2.848613 -3.393190 4.396724 3.616884 2.743581 -7.931822 -9.630772 -4.849159 -13.677483 2.162743 -19.835810 7.769729 -5.961326 -53.635657 2.375860 11.342916 7.199377 -25.731779 18.167397 -6.885031 -8.586042 0.317816 9.983454 14.183414 -12.269207 22.968757 41.341714 -4.949208 -13.658813 23.049296 -8.874723 4.346189 2.451282 -2.714890 
0.314990 1.614057 0.987500 7.137973 -1.513839 87.295737 -1.556926 -6.103445 -21.542538 -1.679838 -4.174871 8.541593 -0.436242 7.516822 -15.479220 0.000000 -0.000000 0.000000 2.369417 -6.480825 4.806796 0.292552 -0.357134 12.824136 3.493514 -7.034602 -15.779082 0.000000 -0.000000 0.000000 0.863849 10.415758 9.828457 -4.619513 4.638705 -1.961946 -2.999901 4.286030 3.393114 2.075926 -6.589942 -10.088156 -4.920378 -14.670702 2.056790 -20.898164 8.799400 -6.247940 -53.863863 2.581733 11.033047 7.073366 -25.740592 17.449452 -5.362436 -8.755016 1.200587 13.735052 11.822256 -10.742554 27.243684 37.243647 -0.052624 -15.011452 33.180511 -5.866508 3.254842 4.648696 -1.426455 
0.317613 1.585486 0.983602 6.521621 -1.504057 88.001755 -1.514387 -5.889467 -22.145374 -1.513155 -3.367558 5.077523 -1.543976 6.742699 -15.627042 0.000000 -0.000000 0.000000 2.312264 -6.258578 5.478563 0.061602 -0.118589 13.889180 4.066898 -6.651312 -16.906552 0.000000 -0.000000 0.000000 0.355495 10.553365 9.460266 -4.223767 4.108365 -2.048515 -2.964630 4.437920 3.220504 1.357900 -5.502622 -10.212677 -4.833899 -15.145439 1.909763 -21.695691 9.267377 -6.117053 -53.700246 2.950720 10.560945 6.645917 -25.646844 17.309312 -4.575303 -9.190076 2.174057 16.445773 10.021734 -9.320673 31.015321 32.797012 4.042313 -15.474394 41.015384 -2.928980 2.171416 6.119276 -1.149765 
0.321446 1.555956 0.980333 5.977802 -1.645599 88.355967 -1.633595 -6.774325 -23.124012 -1.602064 -2.219198 7.049263 -0.880221 7.127507 -15.158869 0.000000 -0.000000 0.000000 2.113353 -5.944936 6.214614 -0.269535 0.297538 15.628103 4.641447 -6.729694 -17.688722 0.000000 -0.000000 0.000000 -0.135913 10.971401 9.353653 -3.788478 3.664142 -1.883224 -2.973043 4.206898 3.081021 0.635905 -5.047279 -10.352079 -4.546223 -15.190921 1.591791 -22.434816 9.149274 -5.610656 -53.584487 2.843875 10.185585 6.330267 -25.170542 17.188342 -4.460255 -9.429029 3.080247 18.470794 8.073851 -8.055189 35.179868 27.597500 7.988592 -15.346514 47.142128 -0.356134 1.965340 7.095888 -1.893375 
0.326549 1.524190 0.978435 5.312876 -2.028650 88.576808 -2.351991 -7.955362 -23.494368 -1.517818 -2.044361 10.617401 1.091699 7.845031 -13.121326 0.000000 -0.000000 0.000000 1.669358 -5.504805 6.619958 -0.667155 0.832449 18.390002 5.489561 -6.948333 -17.757484 0.000000 -0.000000 0.000000 -0.843935 11.277639 9.092929 -3.394542 3.426221 -1.596529 -2.978094 3.818883 3.150227 0.063103 -4.822400 -10.577462 -4.142240 -14.924606 1.120868 -23.226090 9.251522 -5.245007 -53.191948 2.316654 10.124800 5.875669 -24.552003 17.370058 -4.891975 -9.227861 3.967431 20.371751 6.020922 -6.898808 39.160503 22.470161 11.571072 -13.024878 50.006576 3.499908 3.176223 7.357018 -2.726403 
0.332548 1.490179 0.979300 4.652100 -2.655990 88.845865 -3.289462 -9.333777 -23.240495 -1.524872 -2.407476 13.428735 3.628666 8.652006 -11.348824 0.000000 -0.000000 0.000000 0.996227 -4.605072 6.319380 -0.968324 1.278534 22.445887 6.885212 -7.224681 -16.503741 0.000000 -0.000000 0.000000 -1.949850 11.170849 8.591377 -3.059667 3.268781 -1.546292 -2.967742 3.562133 3.204864 -0.265091 -4.818426 -10.241800 -3.460636 -14.397589 0.633967 -23.723910 9.719229 -4.712468 -52.874168 1.593000 10.201954 5.747723 -23.902210 17.364527 -5.870950 -8.882187 4.348816 22.083290 4.140361 -5.909739 43.483888 17.404340 14.693249 -9.400677 47.828929 8.272297 6.154762 7.078032 -2.651707 
